<svg xmlns="http://www.w3.org/2000/svg" viewBox="0 0 83.75 83.75"><defs><style>.cls-1,.cls-3{fill:#060f26;}.cls-1{opacity:0.6;}.cls-2{fill:#fff;}</style></defs><title>changue</title><g id="Layer_2" data-name="Layer 2"><g id="Capa_1" data-name="Capa 1"><circle class="cls-1" cx="41.87" cy="41.87" r="41.87"/><circle class="cls-2" cx="41.87" cy="41.87" r="26.5"/><path class="cls-3" d="M52.09,44.08a.22.22,0,0,1,0,.1,10.68,10.68,0,0,1-3.68,6,10.08,10.08,0,0,1-6.57,2.29,10.31,10.31,0,0,1-3.88-.76,10.5,10.5,0,0,1-3.35-2.16l-1.77,1.77a.88.88,0,0,1-1.5-.62V44.51a.89.89,0,0,1,.88-.88h6.16a.87.87,0,0,1,.62,1.5L37.09,47a7.11,7.11,0,0,0,2.21,1.4,7,7,0,0,0,6-.4,6.93,6.93,0,0,0,2.56-2.46A16.54,16.54,0,0,0,48.6,44a.41.41,0,0,1,.41-.32h2.64a.45.45,0,0,1,.44.44Zm.34-11v6.16a.89.89,0,0,1-.88.88H45.4a.87.87,0,0,1-.62-1.5l1.9-1.9a6.83,6.83,0,0,0-4.8-1.88,7,7,0,0,0-6,3.36,16.54,16.54,0,0,0-.73,1.61.41.41,0,0,1-.41.32H32a.45.45,0,0,1-.44-.44v-.1a10.73,10.73,0,0,1,3.71-6,10.15,10.15,0,0,1,6.6-2.29,10.38,10.38,0,0,1,3.91.76,10.65,10.65,0,0,1,3.37,2.15l1.79-1.77a.88.88,0,0,1,1.5.62Z"/></g></g></svg>